<svg xmlns="http://www.w3.org/2000/svg" width="365" height="272" viewBox="0 0 365 272" version="1.1"><g transform="translate(-168, -170)"><path d="M 323.016 212.182 C 303.348 246.232, 301.177 249.581, 297.242 251.932 C 244.463 283.474, 202.380 323.775, 184.916 359.500 C 175.740 378.272, 173.228 391.500, 176.465 404 C 181.633 423.957, 197.225 435.266, 225.280 439.408 C 238.781 441.402, 247.222 441.413, 263.030 439.458 C 304.850 434.287, 351.793 417.918, 395.039 393.425 C 400.793 390.166, 405.831 387.500, 406.235 387.500 C 406.639 387.500, 413.840 399.425, 422.237 414 L 437.505 440.500 467.752 440.765 C 495.258 441.005, 498 440.880, 498 439.385 C 498 438.481, 491.176 425.987, 482.835 411.621 C 474.494 397.254, 463.903 379.007, 459.298 371.072 C 452.577 359.488, 451.181 356.410, 452.214 355.453 C 452.921 354.797, 458.917 349.545, 465.538 343.780 C 495.584 317.621, 517.285 287.512, 524.062 262.581 C 525.786 256.238, 526.139 252.636, 525.838 244.490 C 525.497 235.286, 525.137 233.680, 522.047 227.592 C 516.046 215.770, 505.369 208.039, 488 202.939 C 477.416 199.832, 449.297 199.072, 432.936 201.451 C 410.900 204.656, 380 212.744, 380 215.307 C 380 217.503, 383.051 221, 384.968 221 C 385.987 221, 391.024 219.895, 396.161 218.544 C 401.297 217.193, 408.650 215.548, 412.500 214.888 C 416.350 214.228, 418.946 213.498, 418.269 213.267 C 416.862 212.786, 405.604 214.983, 392.671 218.262 C 383.925 220.479, 383.829 220.482, 382.408 218.540 C 381.619 217.463, 381.117 216.149, 381.293 215.622 C 382.089 213.234, 410.982 205.859, 431.092 202.910 C 442.936 201.174, 448.526 200.886, 462.500 201.294 C 481.631 201.852, 488.772 203.333, 501.116 209.303 C 531.295 223.898, 533.010 257.987, 505.578 298.021 C 494.927 313.566, 472.715 337.215, 456.288 350.500 C 452.887 353.250, 450.090 355.950, 450.071 356.500 C 450.052 357.050, 460.596 375.725, 473.501 398 L 496.964 438.500 468.244 438.766 C 452.448 438.912, 439.069 438.847, 438.512 438.621 C 437.955 438.396, 430.750 426.482, 422.500 412.146 C 414.250 397.810, 407.241 386.063, 406.925 386.041 C 406.609 386.018, 401.434 388.751, 395.425 392.113 C 370.619 405.994, 338.253 420.190, 317 426.510 C 287.040 435.420, 265.848 438.995, 243 438.993 C 209.866 438.991, 189.491 429.916, 180.216 411.030 C 177.675 405.856, 177.503 404.664, 177.543 392.500 C 177.583 380.378, 177.800 378.937, 180.754 371.167 C 195.195 333.174, 237.356 289.644, 291.653 256.667 C 303.297 249.594, 299.219 255.340, 327.926 205.565 C 336.787 190.201, 344.243 177.424, 344.494 177.172 C 344.746 176.921, 345.711 177.342, 346.640 178.107 C 348.178 179.377, 348.221 179.301, 347.129 177.250 C 346.469 176.012, 345.607 175, 345.212 175 C 344.817 175, 334.829 191.732, 323.016 212.182 M 348.311 180.750 C 348.547 181.162, 351.761 186.787, 355.453 193.250 C 359.146 199.713, 362.381 205, 362.643 205 C 362.904 205, 362.925 204.662, 362.689 204.250 C 362.453 203.838, 359.239 198.213, 355.547 191.750 C 351.854 185.287, 348.619 180, 348.357 180 C 348.096 180, 348.075 180.338, 348.311 180.750 M 363.307 206.750 C 369.865 218.322, 373.269 224, 373.647 224 C 373.906 224, 373.927 223.662, 373.693 223.250 C 367.135 211.678, 363.731 206, 363.353 206 C 363.094 206, 363.073 206.338, 363.307 206.750 M 431.077 211.091 C 425.895 211.563, 421.282 212.073, 420.826 212.224 C 420.370 212.376, 430.358 212.500, 443.022 212.500 C 465.632 212.500, 468.756 211.707, 450 210.729 C 444.775 210.457, 436.260 210.620, 431.077 211.091 M 472.732 215.420 C 482.342 218.990, 489.027 224.954, 491.878 232.500 L 493.012 235.500 492.441 232.500 C 491.152 225.733, 482.701 217.871, 473.124 214.527 C 466.174 212.101, 465.841 212.859, 472.732 215.420 M 374.311 225.750 C 374.547 226.162, 377.761 231.787, 381.453 238.250 C 385.146 244.713, 388.381 250, 388.643 250 C 388.904 250, 388.925 249.662, 388.689 249.250 C 388.453 248.838, 385.239 243.213, 381.547 236.750 C 377.854 230.287, 374.619 225, 374.357 225 C 374.096 225, 374.075 225.338, 374.311 225.750 M 493.175 241.068 C 492.413 265.357, 465.475 298.274, 422.500 327.432 C 417 331.163, 412.050 334.684, 411.500 335.255 C 409.819 337, 412.871 335.115, 423 328.151 C 467.904 297.277, 495.818 262.502, 493.761 240 C 493.360 235.613, 493.345 235.640, 493.175 241.068 M 389.215 251.500 C 389.494 252.050, 397.497 266, 407 282.500 C 416.503 299, 424.440 312.794, 424.638 313.153 C 424.836 313.513, 420.162 317.067, 414.249 321.052 C 404.306 327.754, 399.258 331.529, 403 329.466 C 406.526 327.522, 424.893 314.982, 425.389 314.180 C 425.899 313.354, 391.937 253.656, 389.730 251.500 C 389.048 250.833, 388.876 250.833, 389.215 251.500 M 280.250 270.617 C 262.568 282.568, 251.504 291.754, 237.449 306.154 C 217.806 326.277, 209.101 341.343, 208.221 356.735 C 207.799 364.123, 208.019 365.519, 210.362 370.307 C 211.850 373.350, 214.767 377.085, 217.149 378.999 C 221.317 382.349, 231.160 386.978, 234 386.924 C 234.825 386.909, 232.762 385.878, 229.415 384.634 C 222.391 382.022, 218.459 379.425, 214.223 374.601 C 209.933 369.716, 208.682 365.056, 209.210 355.938 C 209.597 349.247, 210.302 346.813, 214.169 338.819 C 221.244 324.194, 237.296 305.451, 256.500 289.394 C 265.914 281.523, 291.766 263.407, 292.490 264.175 C 292.658 264.354, 289.752 269.675, 286.032 276 C 266.391 309.394, 230 373.042, 230 373.999 C 230 377.496, 250.370 380.340, 266 379.025 C 273.632 378.383, 272.872 378.294, 258.566 378.155 C 247.281 378.045, 240.934 377.524, 236.816 376.368 C 233.617 375.471, 231 374.435, 231 374.067 C 231 373.699, 244.093 350.695, 260.096 322.949 C 276.099 295.202, 290.542 270.137, 292.192 267.250 C 293.841 264.363, 294.698 262, 294.096 262 C 293.493 262, 287.263 265.878, 280.250 270.617 M 343.423 281.750 C 339.798 287.747, 335.929 295, 336.353 295 C 336.628 295, 338.308 292.413, 340.085 289.250 C 344.795 280.872, 345.008 280.662, 346.687 282.739 C 347.977 284.335, 348.008 284.289, 347.020 282.250 C 345.709 279.544, 344.831 279.422, 343.423 281.750 M 330.454 304.250 C 327.857 308.788, 325.541 312.837, 325.307 313.250 C 325.073 313.663, 325.094 314, 325.353 314 C 325.731 314, 329.135 308.322, 335.693 296.750 C 335.927 296.337, 335.906 296, 335.647 296 C 335.387 296, 333.050 299.712, 330.454 304.250 M 319.677 322.750 C 319.435 323.163, 312.616 334.975, 304.524 349 C 296.433 363.025, 289.668 374.649, 289.492 374.831 C 289.316 375.013, 285.870 375.797, 281.836 376.574 C 274.902 377.909, 274.811 377.959, 280.189 377.492 C 283.318 377.220, 286.936 376.595, 288.228 376.103 C 289.902 375.467, 294.441 368.480, 303.984 351.855 C 311.357 339.010, 318.246 327.038, 319.293 325.250 C 320.341 323.462, 320.955 322, 320.658 322 C 320.361 322, 319.920 322.337, 319.677 322.750 M 395.250 333.105 C 392.363 334.788, 390 336.396, 390 336.678 C 390 337.233, 398.893 332.288, 400.450 330.867 C 402.145 329.320, 400.605 329.983, 395.250 333.105 M 376.310 334.500 C 377.155 336.150, 378.596 338.400, 379.510 339.500 C 380.424 340.600, 380.161 339.700, 378.926 337.500 C 376.201 332.646, 374.159 330.306, 376.310 334.500 M 400.253 341.564 C 396.267 343.979, 390.305 347.360, 387.003 349.078 C 381.148 352.126, 379.230 353.579, 382.750 352.302 C 385.672 351.242, 406.937 338.912, 407.548 337.923 C 408.326 336.664, 408.424 336.615, 400.253 341.564 M 360.500 362 C 356.100 364.114, 352.950 365.852, 353.500 365.863 C 354.050 365.873, 358.100 364.147, 362.500 362.028 C 366.900 359.908, 370.050 358.169, 369.500 358.165 C 368.950 358.160, 364.900 359.886, 360.500 362 M 326 375.500 C 322.425 376.789, 319.975 377.879, 320.556 377.922 C 321.894 378.021, 334 373.956, 334 373.408 C 334 372.734, 332.801 373.048, 326 375.500 M 310.171 380.056 C 302.300 382.332, 300.436 383.163, 305 382.363 C 309.381 381.594, 320.031 378.195, 318 378.213 C 317.175 378.221, 313.652 379.050, 310.171 380.056 M 287 385.500 C 283.975 386.202, 282.400 386.806, 283.500 386.844 C 284.600 386.882, 288.200 386.303, 291.500 385.559 C 294.800 384.814, 296.375 384.209, 295 384.215 C 293.625 384.220, 290.025 384.798, 287 385.500 M 249.750 388.744 C 254.287 388.929, 261.712 388.929, 266.250 388.744 C 270.788 388.559, 267.075 388.407, 258 388.407 C 248.925 388.407, 245.213 388.559, 249.750 388.744" stroke="none" fill="#cfdcec" fill-rule="evenodd"/><path d="M 327.544 206.233 C 299.554 254.841, 303.304 249.572, 291.639 256.667 C 237.265 289.735, 195.193 333.179, 180.754 371.167 C 177.800 378.937, 177.583 380.378, 177.543 392.500 C 177.503 404.664, 177.675 405.856, 180.216 411.030 C 189.491 429.916, 209.866 438.991, 243 438.993 C 265.848 438.995, 287.040 435.420, 317 426.510 C 338.253 420.190, 370.619 405.994, 395.425 392.113 C 401.434 388.751, 406.609 386.018, 406.925 386.041 C 407.241 386.063, 414.250 397.810, 422.500 412.146 C 430.750 426.482, 437.955 438.396, 438.512 438.621 C 439.069 438.847, 452.448 438.912, 468.244 438.766 L 496.964 438.500 473.501 398 C 460.596 375.725, 450.052 357.050, 450.071 356.500 C 450.090 355.950, 452.887 353.250, 456.288 350.500 C 465.772 342.830, 484.373 324.515, 492.828 314.521 C 515.631 287.570, 526.055 264.389, 524.753 243.525 C 523.516 223.693, 510.832 210.468, 486.616 203.761 C 475.225 200.605, 449.499 200.211, 431.092 202.910 C 410.982 205.859, 382.089 213.234, 381.293 215.622 C 381.117 216.149, 381.614 217.458, 382.398 218.530 C 383.803 220.451, 383.977 220.440, 394.661 217.764 C 432.080 208.394, 463.905 208.308, 479.647 217.533 C 495.279 226.694, 498.236 242.750, 488.019 263 C 476.353 286.121, 447.336 313.160, 406.500 338.961 C 374.241 359.342, 329.118 377.657, 291.533 385.624 C 277.009 388.702, 250.351 389.963, 239.550 388.082 C 224.611 385.481, 214.898 379.578, 210.388 370.362 C 208.016 365.513, 207.798 364.141, 208.221 356.735 C 208.798 346.634, 211.642 339.286, 219.664 327.164 C 226.328 317.094, 245.435 297.098, 258.500 286.521 C 268.400 278.506, 292.361 262, 294.096 262 C 294.698 262, 293.841 264.363, 292.192 267.250 C 290.542 270.137, 276.099 295.202, 260.096 322.949 C 244.093 350.695, 231 373.708, 231 374.088 C 231 374.467, 233.885 375.559, 237.410 376.513 C 242.822 377.978, 246.679 378.163, 262.160 377.699 C 272.247 377.397, 282.542 376.650, 285.037 376.039 L 289.574 374.929 304.449 349.214 C 312.631 335.072, 324.978 313.712, 331.886 301.750 C 338.795 289.788, 344.740 280, 345.096 280 C 345.452 280, 351.510 290.012, 358.557 302.250 C 365.605 314.488, 373.555 328.213, 376.225 332.752 L 381.079 341.003 387.290 337.637 C 397.398 332.158, 403.899 328.168, 414.732 320.795 L 424.964 313.831 423.538 311.165 C 416.585 298.162, 346.213 177.571, 345.426 177.309 C 344.860 177.120, 336.813 190.136, 327.544 206.233" stroke="none" fill="#fbfbfb" fill-rule="evenodd"/></g></svg>
